<svg xmlns="http://www.w3.org/2000/svg" viewBox="0 0 160 160" role="img" aria-labelledby="title description">
  <title id="title">Drake's Food ninja chef mascot</title>
  <desc id="description">A friendly ninja chef wearing a white apron and holding a chef knife.</desc>
  <defs>
    <linearGradient id="purpleBg" x1="20" x2="140" y1="20" y2="140" gradientUnits="userSpaceOnUse">
      <stop stop-color="#eee7fb" />
      <stop offset="1" stop-color="#d9c8f7" />
    </linearGradient>
    <linearGradient id="mask" x1="46" x2="116" y1="34" y2="122" gradientUnits="userSpaceOnUse">
      <stop stop-color="#4b2d82" />
      <stop offset="1" stop-color="#2b1a4d" />
    </linearGradient>
  </defs>
  <circle cx="80" cy="80" r="74" fill="url(#purpleBg)" />
  <path fill="#f7efe7" d="M42 113c5-24 21-38 39-38s34 14 39 38c-10 12-23 18-40 18s-29-6-38-18Z" />
  <path fill="url(#mask)" d="M39 72c0-28 18-48 42-48 23 0 40 20 40 48 0 18-5 33-16 44H56C45 105 39 90 39 72Z" />
  <path fill="#2b1a4d" d="M111 47c10 0 18 9 19 22-9-5-18-9-28-10l9-12Z" />
  <path fill="#fffaf5" d="M51 66c8-8 19-12 31-12 11 0 21 4 29 12-5 15-15 22-30 22-16 0-26-7-30-22Z" />
  <circle cx="67" cy="70" r="4.5" fill="#32221b" />
  <circle cx="94" cy="70" r="4.5" fill="#32221b" />
  <path fill="none" stroke="#8c5a40" stroke-linecap="round" stroke-width="4" d="M72 82c5 3 11 3 16 0" />
  <path fill="#ffffff" d="M56 99h50l9 30c-9 8-21 12-35 12-13 0-25-4-34-12l10-30Z" />
  <path fill="none" stroke="#d9c8f7" stroke-linecap="round" stroke-width="4" d="M68 105v31M93 105v31" />
  <path fill="#8c5a40" d="M50 111c-8 7-16 8-23 2-3-3-3-8 0-11 4-4 9-4 13 0 3 3 6 6 10 9Z" />
  <path fill="#8c5a40" d="M110 111c7 5 15 4 21-3 3-4 3-9-1-12-4-3-9-2-12 2-2 4-5 8-8 13Z" />
  <path fill="#d9dde7" d="M117 50 142 25c3-3 8-1 8 3 0 1-1 3-2 4l-25 25-6-7Z" />
  <path fill="#f6f8fb" d="M112 45 142 15c3-3 8 0 7 4l-6 25-24 9-7-8Z" />
  <path fill="#32221b" d="M104 54c-2-2-2-5 0-7l5-5 15 15-5 5c-2 2-5 2-7 0l-8-8Z" />
  <circle cx="80" cy="80" r="74" fill="none" stroke="#6d4aa3" stroke-opacity="0.25" stroke-width="6" />
</svg>
