<svg xmlns="http://www.w3.org/2000/svg" viewBox="0 0 64 64" role="img" aria-label="Drake's Food ninja chef icon">
  <defs>
    <linearGradient id="bg" x1="8" x2="56" y1="8" y2="56" gradientUnits="userSpaceOnUse">
      <stop stop-color="#eee7fb" />
      <stop offset="1" stop-color="#d9c8f7" />
    </linearGradient>
  </defs>
  <circle cx="32" cy="32" r="30" fill="url(#bg)" />
  <path fill="#3d256f" d="M16 29c0-12 7-20 17-20 9 0 16 8 16 20 0 8-2 14-7 19H23c-5-5-7-11-7-19Z" />
  <path fill="#fffaf5" d="M20 27c4-4 8-5 13-5 4 0 8 1 12 5-2 6-6 9-13 9s-11-3-12-9Z" />
  <circle cx="27" cy="29" r="2" fill="#32221b" />
  <circle cx="38" cy="29" r="2" fill="#32221b" />
  <path fill="#ffffff" d="M23 41h20l4 13c-4 3-9 5-15 5s-11-2-15-5l6-13Z" />
  <path fill="#f6f8fb" d="M46 19 59 6c1-1 3 0 3 2l-2 10-11 4-3-3Z" />
  <path fill="#32221b" d="M42 23c-1-1-1-2 0-3l2-2 6 6-2 2c-1 1-2 1-3 0l-3-3Z" />
  <circle cx="32" cy="32" r="30" fill="none" stroke="#6d4aa3" stroke-opacity="0.35" stroke-width="3" />
</svg>
